<svg width="230" height="60" viewBox="0 0 230 60" fill="none" xmlns="http://www.w3.org/2000/svg">
<path d="M157.855 10.471C150.964 9.34781 143.935 10.0435 136.978 10.1522C134.174 10.1956 131.638 12.7174 131.254 15.529C130.681 19.7464 130.768 24.029 131.181 28.2609C131.449 31.0217 133.804 32.7101 136.529 32.5942C139.073 32.4855 141.159 30.6377 141.5 28.058C141.652 26.8985 141.551 25.7101 141.58 24.529C141.652 21.5724 143.116 20.029 146.087 19.9348C148.442 19.8551 150.797 19.8768 153.152 19.9275C159.036 20.0435 163.261 23.8333 163.319 29.0145C163.377 34.3261 159.384 37.9275 153.261 38.0217C147.015 38.1159 140.768 38.1739 134.522 38.2101C129.486 38.2391 128.63 37.5217 127.413 32.7246C125.841 26.5072 124.246 20.3043 122.601 14.1087C121.92 11.5435 120.348 9.80434 117.573 9.47825C114.812 9.15216 112.768 10.3623 111.565 12.7536C107.877 20.0797 103.913 27.2754 100.746 34.8623C99.4348 33.5362 99.087 31.6594 98.0653 30.1594C96.9348 27.0942 95.2899 24.2826 93.6667 21.4638C92.3044 17.9203 90.6667 14.529 88.3841 11.4782C87.1667 9.72463 85.4638 9.21738 83.4348 9.57245C80.5 9.84057 79.0073 11.6087 78.4493 14.3551C76.8841 19.1159 75.6522 23.971 74.6667 28.8913C74.174 30.4855 73.5725 32.058 73.2029 33.6811C72.7971 35.4855 72.2464 37.1014 70.3624 37.8623C65.2464 37.8913 60.1305 37.9348 55.0145 37.942C51.9783 37.9493 48.9058 38.2391 45.9638 37.1522C40.9711 33.8768 40.3479 30.3406 41.558 25.8478C41.8189 24.8696 42.8551 24.2826 42.7102 23.1739C44.0073 22.7464 44.8841 21.7101 45.9348 20.9348C48.3986 20.0507 50.9711 19.9203 53.5435 19.8043C56.2609 19.8043 58.9783 19.8043 61.6957 19.8043C62.9493 19.8406 64.2102 19.9638 65.4493 19.884C68.1087 19.7174 69.8841 17.7753 69.9421 15.1304C70 12.3913 68.174 10.2753 65.4566 10.0725C64.2102 9.97825 62.9493 10.1087 61.6957 10.1377C58.9783 10.1377 56.2609 10.1377 53.5435 10.1377C50.8044 9.94926 48.0653 9.88405 45.3913 10.6884C44.2174 10.7681 43.1305 11.1232 42.1232 11.7246C41.0653 11.7971 40.2609 12.4203 39.4203 12.9638C27.6232 19.5797 27.6232 37.2826 39.4203 44.6667C41.2392 45.8623 43.1377 46.8696 45.3624 47.0869C45.6015 47.2101 45.8334 47.413 46.0798 47.4348C56.3551 48.3333 66.6595 47.8913 76.9493 47.8551C77.1015 47.8551 77.2537 47.6739 77.4058 47.5797C79.1377 47.1304 80.2609 46.0869 80.5942 44.2898C80.7609 43.5217 80.8986 42.7464 81.0942 41.9855C82.3551 37.1667 83.8116 32.3985 84.4783 27.442C84.7971 26.7826 84.2392 25.7464 85.3769 25.4348C85.9638 26.5072 86.5653 27.6014 87.1595 28.6884C88.587 32.3551 90.2174 35.9203 92.145 39.3551C93.3624 42.058 94.0508 45.058 96.4421 47.1087C98.0363 48.7174 99.8769 48.8768 101.826 48.3188C102.029 48.2826 102.246 48.2246 102.471 48.1159C104.022 47.9927 104.891 46.8913 105.544 45.7246C106.638 43.7609 107.565 41.6956 108.522 39.6522C110.754 34.9058 112.971 30.1522 115.362 25.0435C116.775 31.0145 118.058 36.558 119.399 42.0869C120.348 45.9855 122.471 47.8188 126.196 47.8333C135.703 47.8768 145.217 47.971 154.725 47.8116C164.63 47.6449 172.826 40.2029 173.623 30.9638C174.544 20.2319 168.573 12.2246 157.855 10.471Z" fill="white"/>
<path d="M14.9203 48.6449L3.40576 29L14.9275 9.3623H27.1304L15.5507 29L27.1304 48.6377H14.9203V48.6449Z" fill="#F8C247"/>
<path d="M214.746 10.0869L226.268 29.7246L214.746 49.3623H202.543L214.123 29.7246L202.543 10.0869H214.746Z" fill="#F8C247"/>
<path d="M202.406 4.66673L175.942 55.6088L166.739 53.6522L193.203 2.71021L202.406 4.66673Z" fill="#F8C247"/>
</svg>
